<svg width="280" height="64" viewBox="0 0 280 64" fill="none" xmlns="http://www.w3.org/2000/svg">
  <path
    d="M79.7512 49.4544V16.9453H82.8163L95.0767 34.6617H93.369L105.586 16.9453H108.651V49.4544H105.148V21.658L106.286 22.0944L94.2885 39.418H94.1134L82.1595 22.0944L83.2541 21.658V49.4544H79.7512Z"
    fill="#141624" />
  <path
    d="M126.557 49.978C124.368 49.978 122.383 49.4544 120.602 48.4071C118.85 47.3308 117.464 45.8617 116.442 43.9999C115.42 42.138 114.91 40.029 114.91 37.6726C114.91 35.3162 115.406 33.2362 116.398 31.4326C117.391 29.5999 118.734 28.1599 120.427 27.1126C122.149 26.0653 124.076 25.5417 126.207 25.5417C127.9 25.5417 129.403 25.8617 130.717 26.5017C132.06 27.1126 133.198 27.9562 134.132 29.0326C135.066 30.0799 135.781 31.2726 136.278 32.6108C136.774 33.9199 137.022 35.2726 137.022 36.669C137.022 36.9599 137.007 37.2944 136.978 37.6726C136.949 38.0217 136.905 38.3853 136.847 38.7635H117.011V35.709H134.964L133.388 37.018C133.65 35.418 133.461 33.9926 132.819 32.7417C132.205 31.4617 131.315 30.458 130.147 29.7308C128.98 28.9744 127.666 28.5962 126.207 28.5962C124.747 28.5962 123.39 28.9744 122.134 29.7308C120.908 30.4871 119.945 31.549 119.244 32.9162C118.544 34.2544 118.267 35.8544 118.413 37.7162C118.267 39.578 118.558 41.2071 119.288 42.6035C120.047 43.9708 121.069 45.0326 122.353 45.789C123.667 46.5453 125.068 46.9235 126.557 46.9235C128.279 46.9235 129.724 46.5162 130.892 45.7017C132.06 44.8871 133.008 43.869 133.738 42.6471L136.54 44.1308C136.073 45.178 135.358 46.1526 134.395 47.0544C133.432 47.9271 132.278 48.6399 130.936 49.1926C129.622 49.7162 128.162 49.978 126.557 49.978Z"
    fill="#141624" />
  <path
    d="M151.789 49.7162C149.687 49.7162 148.067 49.1053 146.928 47.8835C145.79 46.6617 145.221 44.9162 145.221 42.6471V29.338H140.886V26.0653H141.98C142.973 26.0653 143.761 25.7453 144.345 25.1053C144.929 24.4362 145.221 23.6071 145.221 22.618V20.6544H148.505V26.0653H153.671V29.338H148.505V42.6471C148.505 43.4326 148.621 44.1308 148.855 44.7417C149.088 45.3235 149.483 45.789 150.037 46.138C150.621 46.4871 151.395 46.6617 152.358 46.6617C152.591 46.6617 152.869 46.6471 153.19 46.618C153.511 46.589 153.788 46.5599 154.022 46.5308V49.4544C153.671 49.5417 153.277 49.5999 152.84 49.629C152.402 49.6871 152.051 49.7162 151.789 49.7162Z"
    fill="#141624" />
  <path
    d="M166.148 49.978C164.659 49.978 163.331 49.7017 162.163 49.149C160.995 48.5671 160.076 47.7817 159.405 46.7926C158.733 45.8035 158.397 44.669 158.397 43.389C158.397 42.1671 158.66 41.0617 159.186 40.0726C159.711 39.0544 160.528 38.1962 161.638 37.498C162.747 36.7999 164.163 36.3053 165.885 36.0144L175.08 34.4871V37.4544L166.673 38.8508C164.98 39.1417 163.754 39.6799 162.995 40.4653C162.265 41.2508 161.9 42.1817 161.9 43.258C161.9 44.3053 162.309 45.1926 163.126 45.9199C163.973 46.6471 165.053 47.0108 166.367 47.0108C167.972 47.0108 169.373 46.6762 170.57 46.0071C171.767 45.309 172.701 44.378 173.373 43.2144C174.044 42.0508 174.38 40.7562 174.38 39.3308V33.3962C174.38 31.9999 173.869 30.8653 172.847 29.9926C171.826 29.1199 170.497 28.6835 168.863 28.6835C167.432 28.6835 166.177 29.0471 165.097 29.7744C164.017 30.4726 163.214 31.389 162.689 32.5235L159.711 30.909C160.149 29.9199 160.835 29.018 161.769 28.2035C162.732 27.389 163.827 26.749 165.053 26.2835C166.279 25.789 167.549 25.5417 168.863 25.5417C170.585 25.5417 172.103 25.8762 173.416 26.5453C174.759 27.2144 175.796 28.1453 176.525 29.338C177.284 30.5017 177.664 31.8544 177.664 33.3962V49.4544H174.38V44.7853L174.861 45.2653C174.453 46.138 173.811 46.938 172.935 47.6653C172.088 48.3635 171.081 48.9308 169.913 49.3671C168.775 49.7744 167.52 49.978 166.148 49.978Z"
    fill="#141624" />
  <path
    d="M186.796 49.4546V16.9455H200.589C202.837 16.9455 204.764 17.3237 206.369 18.0801C207.975 18.8364 209.201 19.9273 210.047 21.3528C210.894 22.7491 211.317 24.451 211.317 26.4582C211.317 27.8837 210.923 29.251 210.135 30.5601C209.347 31.8401 208.048 32.9164 206.238 33.7892V30.4728C207.96 31.1419 209.288 31.9419 210.222 32.8728C211.156 33.8037 211.799 34.8219 212.149 35.9273C212.499 37.0037 212.674 38.1382 212.674 39.331C212.674 42.531 211.609 45.0182 209.478 46.7928C207.347 48.5673 204.384 49.4546 200.589 49.4546H186.796ZM193.583 43.5637H201.377C202.749 43.5637 203.844 43.171 204.661 42.3855C205.479 41.6001 205.887 40.5819 205.887 39.331C205.887 38.051 205.479 37.0182 204.661 36.2328C203.844 35.4473 202.749 35.0546 201.377 35.0546H193.583V43.5637ZM193.583 29.1637H201.071C202.122 29.1637 202.954 28.8728 203.567 28.291C204.209 27.6801 204.53 26.8801 204.53 25.891C204.53 24.9019 204.209 24.1164 203.567 23.5346C202.954 22.9237 202.122 22.6182 201.071 22.6182H193.583V29.1637Z"
    fill="#141624" />
  <path d="M216.547 49.4546V16.4219H223.115V49.4546H216.547Z" fill="#141624" />
  <path
    d="M239.787 49.9782C237.423 49.9782 235.263 49.4401 233.307 48.3637C231.38 47.2873 229.833 45.8182 228.665 43.9564C227.527 42.0655 226.958 39.9273 226.958 37.5419C226.958 35.1273 227.527 32.9892 228.665 31.1273C229.833 29.2655 231.38 27.7964 233.307 26.7201C235.263 25.6437 237.423 25.1055 239.787 25.1055C242.152 25.1055 244.297 25.6437 246.224 26.7201C248.151 27.7964 249.683 29.2655 250.822 31.1273C251.989 32.9892 252.573 35.1273 252.573 37.5419C252.573 39.9273 251.989 42.0655 250.822 43.9564C249.683 45.8182 248.151 47.2873 246.224 48.3637C244.297 49.4401 242.152 49.9782 239.787 49.9782ZM239.787 44.0873C240.984 44.0873 242.02 43.811 242.896 43.2582C243.801 42.7055 244.502 41.9346 244.998 40.9455C245.523 39.9564 245.786 38.8219 245.786 37.5419C245.786 36.2619 245.523 35.1419 244.998 34.1819C244.502 33.1928 243.801 32.4219 242.896 31.8691C242.02 31.2873 240.984 30.9964 239.787 30.9964C238.59 30.9964 237.54 31.2873 236.635 31.8691C235.73 32.4219 235.014 33.1928 234.489 34.1819C233.993 35.1419 233.745 36.2619 233.745 37.5419C233.745 38.8219 233.993 39.9564 234.489 40.9455C235.014 41.9346 235.73 42.7055 236.635 43.2582C237.54 43.811 238.59 44.0873 239.787 44.0873Z"
    fill="#141624" />
  <path
    d="M268.177 59.0546C266.338 59.0546 264.631 58.7492 263.054 58.1382C261.478 57.5273 260.121 56.6692 258.982 55.5637C257.873 54.4873 257.07 53.2073 256.574 51.7237L262.66 49.5855C262.981 50.691 263.638 51.5637 264.631 52.2037C265.623 52.8437 266.805 53.1637 268.177 53.1637C269.258 53.1637 270.192 52.9601 270.98 52.5528C271.768 52.1746 272.366 51.6073 272.775 50.851C273.213 50.0946 273.432 49.2073 273.432 48.1892V42.7346L274.702 44.3055C273.884 45.6437 272.834 46.6473 271.549 47.3164C270.265 47.9564 268.761 48.2764 267.039 48.2764C264.82 48.2764 262.835 47.7819 261.084 46.7928C259.332 45.7746 257.96 44.3928 256.968 42.6473C255.975 40.8728 255.479 38.8655 255.479 36.6255C255.479 34.3855 255.975 32.4073 256.968 30.691C257.96 28.9455 259.318 27.5782 261.04 26.5891C262.762 25.6001 264.718 25.1055 266.908 25.1055C268.63 25.1055 270.133 25.4546 271.418 26.1528C272.702 26.8219 273.797 27.8546 274.702 29.251L273.87 30.8219V25.6292H280V48.1892C280 50.2837 279.489 52.1455 278.467 53.7746C277.446 55.4328 276.045 56.7273 274.264 57.6582C272.512 58.5892 270.484 59.0546 268.177 59.0546ZM267.959 42.3419C269.068 42.3419 270.031 42.1092 270.848 41.6437C271.666 41.1782 272.293 40.5237 272.731 39.6801C273.198 38.8364 273.432 37.8473 273.432 36.7128C273.432 35.5782 273.198 34.5892 272.731 33.7455C272.264 32.8728 271.622 32.2037 270.805 31.7382C269.987 31.2437 269.039 30.9964 267.959 30.9964C266.849 30.9964 265.857 31.2437 264.981 31.7382C264.134 32.2037 263.463 32.8728 262.967 33.7455C262.5 34.5892 262.266 35.5782 262.266 36.7128C262.266 37.8182 262.5 38.7928 262.967 39.6364C263.463 40.4801 264.134 41.1492 264.981 41.6437C265.857 42.1092 266.849 42.3419 267.959 42.3419Z"
    fill="#141624" />
  <path
    d="M32 64C49.6731 64 64 49.6731 64 32C64 14.3269 49.6731 0 32 0C14.3269 0 0 14.3269 0 32C0 39.3813 2.49916 46.1789 6.69746 51.5928L13.7521 24.9421C16.6875 13.375 24.3125 7.39066 36.554 7.39066H40.7751C49.384 7.39066 55.7067 15.4721 53.6353 23.828C53.2637 25.3267 52.5693 26.7261 51.6005 27.9284L48.008 32.3864C47.0862 33.5304 46.75 35.0386 47.0986 36.4659L48.1937 40.949C48.7605 43.2694 48.657 45.703 47.8951 47.9669C45.3034 55.668 38.0848 60.855 29.9593 60.855H18.1487C22.34 62.8707 27.0381 64 32 64Z"
    fill="#141624" />
  <path fill-rule="evenodd" clip-rule="evenodd"
    d="M31.4667 38.683H25.2323C23.2438 38.683 21.5055 40.024 21.0006 41.9472L18.5553 51.2629H28.2152C31.7887 51.2629 34.9127 48.8531 35.82 45.3967L36.0296 44.5982C36.8146 41.6077 34.5586 38.683 31.4667 38.683ZM29.6259 41.5135H26.2383C25.1033 41.5135 24.1107 42.2781 23.821 43.3756L22.4865 48.4324H27.828C29.804 48.4324 31.5314 47.107 32.0331 45.206L32.149 44.7669C32.5831 43.122 31.3356 41.5135 29.6259 41.5135Z"
    fill="#141624" />
  <path fill-rule="evenodd" clip-rule="evenodd"
    d="M26.6616 20.876C27.1664 18.9527 28.9048 17.6118 30.8932 17.6118H37.1276C40.2195 17.6118 42.4755 20.5364 41.6905 23.527L41.4809 24.3255C40.5736 27.7818 37.4496 30.1916 33.8761 30.1916H24.2162L26.6616 20.876ZM29.482 22.3043C29.7716 21.2069 30.7642 20.4423 31.8992 20.4423H35.2869C36.9966 20.4423 38.244 22.0508 37.8099 23.6956L37.694 24.1348C37.1923 26.0358 35.4649 27.3612 33.4889 27.3612H28.1474L29.482 22.3043Z"
    fill="#141624" />
</svg>
  