<svg width="36" height="36" viewBox="0 0 64 64" fill="none" xmlns="http://www.w3.org/2000/svg">
  <path
    d="M32 64C49.6731 64 64 49.6731 64 32C64 14.3269 49.6731 0 32 0C14.3269 0 0 14.3269 0 32C0 39.3813 2.49916 46.1789 6.69746 51.5928L13.7521 24.9421C16.6875 13.375 24.3125 7.39066 36.554 7.39066H40.7751C49.384 7.39066 55.7067 15.4721 53.6353 23.828C53.2637 25.3267 52.5693 26.7261 51.6005 27.9284L48.008 32.3864C47.0862 33.5304 46.75 35.0386 47.0986 36.4659L48.1937 40.949C48.7605 43.2694 48.657 45.703 47.8951 47.9669C45.3034 55.668 38.0848 60.855 29.9593 60.855H18.1487C22.34 62.8707 27.0381 64 32 64Z"
    fill="white" />
  <path fill-rule="evenodd" clip-rule="evenodd"
    d="M31.4667 38.683H25.2323C23.2438 38.683 21.5055 40.024 21.0006 41.9472L18.5553 51.2629H28.2152C31.7887 51.2629 34.9127 48.8531 35.82 45.3967L36.0296 44.5982C36.8146 41.6077 34.5586 38.683 31.4667 38.683ZM29.6259 41.5135H26.2383C25.1033 41.5135 24.1107 42.2781 23.821 43.3756L22.4865 48.4324H27.828C29.804 48.4324 31.5314 47.107 32.0331 45.206L32.149 44.7669C32.5831 43.122 31.3356 41.5135 29.6259 41.5135Z"
    fill="white" />
  <path fill-rule="evenodd" clip-rule="evenodd"
    d="M26.6616 20.876C27.1664 18.9527 28.9048 17.6118 30.8932 17.6118H37.1276C40.2195 17.6118 42.4755 20.5364 41.6905 23.527L41.4809 24.3255C40.5736 27.7818 37.4496 30.1916 33.8761 30.1916H24.2162L26.6616 20.876ZM29.482 22.3043C29.7716 21.2069 30.7642 20.4423 31.8992 20.4423H35.2869C36.9966 20.4423 38.244 22.0508 37.8099 23.6956L37.694 24.1348C37.1923 26.0358 35.4649 27.3612 33.4889 27.3612H28.1474L29.482 22.3043Z"
    fill="white" />
</svg>
  